<svg id="ICONS" xmlns="http://www.w3.org/2000/svg" viewBox="0 0 400 140">
  <defs>
    <style>
      .cls-1 {
        fill: #80def9;
      }

      .cls-2, .cls-3, .cls-6 {
        fill: #fff;
      }

      .cls-2 {
        stroke: #bad80a;
      }

      .cls-2, .cls-3, .cls-8 {
        stroke-miterlimit: 10;
        stroke-width: 2px;
      }

      .cls-3, .cls-8 {
        stroke: #556a8a;
      }

      .cls-4 {
        fill: #e5e5e5;
      }

      .cls-5 {
        fill: #2bc7f4;
      }

      .cls-7 {
        fill: #556a8a;
      }

      .cls-8 {
        fill: none;
      }
    </style>
  </defs>
  <title>virtualization-hperv-server-management-tools</title>
  <path class="cls-1" d="M265.51,63.54a42.92,42.92,0,0,0-10.29,1.72c-.86-16.29-15.45-30-31.76-30-9.44,0-18.38,4-24,10.28.75-.84-.19-1.09-2.29-.9A31.41,31.41,0,0,0,170.27,30.1c-17.12,0-31,13-31,29a27.37,27.37,0,0,0,.36,4.44h-2.87A31.67,31.67,0,0,0,105,95.26c0,17.15,14.59,30.86,31.76,30.86H265.51c18,0,31.76-13.72,31.76-30.86C297.27,77.25,283.53,63.54,265.51,63.54Z"/>
  <path class="cls-2" d="M286.31,48.93v-.65a26.39,26.39,0,0,0-.85-6.55,23.73,23.73,0,0,0-39-16.85c-5.77-7.27-13.13-10.88-23-10.88C206.12,14,193,29.15,192.73,46.22c0,1.18.29,2.06.29,3.24-9.12,4.41-14.42,12.07-14.42,21.78,0,13.88,10.92,25,25.39,25.82,1.33,9.64,10,18.59,24.77,18.59,12.49,0,19.93,1,29-9.24a30.68,30.68,0,0,0,14.52,4c17.5,0,31.68-15.5,31.68-33A31.68,31.68,0,0,0,286.31,48.93Z"/>
  <g>
    <path class="cls-3" d="M269.48,59.16a15.84,15.84,0,0,0,3.65-16.72l-7.39,7.38-8.4-.93-.93-8.4,7.38-7.39a15.83,15.83,0,0,0-20.36,20.36L210.68,86.23a5.3,5.3,0,0,0,0,7.47l.93.93a5.3,5.3,0,0,0,7.47,0l32.39-32.39A15.83,15.83,0,0,0,269.48,59.16Z"/>
    <rect class="cls-4" x="214.84" y="82.54" width="6.6" height="9.24" transform="translate(2.26 179.78) rotate(-45)"/>
  </g>
  <g>
    <path class="cls-5" d="M248.74,65.38l-4.9,4.9-19.6-19.6-.83-6.77-11.92-6-3.92,3.92,5.88,11.76,6.86,1,19.6,19.6L235,79.1l4.9,4.9,2.94-2.94c1.84,1.84,2.1,6,1.19,7.07l11.4,11.4c3,3,7.95,4.11,9.95,2.11l5.88-5.88c2-2,.46-7.38-2.57-10.41l-11-11c-1,1-5.16.72-7-1.12l2.94-2.94Z"/>
    <rect class="cls-6" x="253.73" y="77.61" width="2.77" height="23.56" transform="translate(11.51 206.57) rotate(-45)"/>
    <rect class="cls-6" x="257.65" y="73.69" width="2.77" height="23.56" transform="translate(15.43 208.2) rotate(-45)"/>
  </g>
  <g>
    <path class="cls-7" d="M135.4,62H114.6a2.58,2.58,0,0,0-2.6,2.54v8.91A2.58,2.58,0,0,0,114.6,76H114V64h22V76h0c1.43,0,2-1.15,2-2.54V64.54A2.58,2.58,0,0,0,135.4,62Z"/>
    <path class="cls-6" d="M153,70.9H97.2A6.32,6.32,0,0,0,91,77.32V109.7a1.88,1.88,0,0,0,1.86,1.9h64.47a1.8,1.8,0,0,0,1-.24,2,2,0,0,0,.9-1.66V77.32A6.32,6.32,0,0,0,153,70.9Z"/>
    <rect class="cls-5" x="91" y="88" width="68" height="5"/>
    <rect class="cls-4" x="91.2" y="103.2" width="68.2" height="8.8"/>
    <path class="cls-8" d="M152.92,71H97.28a6.34,6.34,0,0,0-6.18,6.47v32.61A1.88,1.88,0,0,0,93,112h64.28a1.78,1.78,0,0,0,1-.24,2,2,0,0,0,.89-1.67V77.47A6.34,6.34,0,0,0,152.92,71Z"/>
    <rect class="cls-3" x="104" y="84" width="8" height="15" rx="2" ry="2"/>
    <line class="cls-3" x1="108" y1="87" x2="108" y2="96"/>
    <rect class="cls-3" x="138" y="84" width="8" height="15" rx="2" ry="2"/>
    <line class="cls-3" x1="142" y1="87" x2="142" y2="96"/>
  </g>
</svg>
