<svg id="ICONS" xmlns="http://www.w3.org/2000/svg" viewBox="0 0 400 140">
  <defs>
    <style>
      .cls-1, .cls-3, .cls-7 {
        fill: #fff;
      }

      .cls-1 {
        stroke: #55d2f6;
      }

      .cls-1, .cls-3, .cls-8 {
        stroke-miterlimit: 10;
        stroke-width: 2px;
      }

      .cls-2 {
        fill: #2bc7f4;
      }

      .cls-3, .cls-8 {
        stroke: #556a8a;
      }

      .cls-4 {
        fill: #e5e5e5;
      }

      .cls-5, .cls-8 {
        fill: none;
      }

      .cls-6 {
        fill: #556a8a;
      }
    </style>
  </defs>
  <title>virtualization-hperv-server-hperv</title>
  <path class="cls-1" d="M314.82,88.41A22.61,22.61,0,0,0,286,66.7a20.73,20.73,0,0,0-31.27-22.16A22.63,22.63,0,0,0,236.53,35c-11.61,0-21.57,9.72-23.39,22.46C202.11,60,194,71,194,83.9s9.44,32.75,34,30.87c0,0,62.11,0,62.3,0C290.7,114.73,314.82,114.77,314.82,88.41Z"/>
  <path class="cls-1" d="M174.11,68.5a16,16,0,0,0-2.87-4.81,22.17,22.17,0,0,0-6.1-5.39v-.53a17.9,17.9,0,0,0-17.88-17.66,17.58,17.58,0,0,0-9.49,2.65,23.93,23.93,0,0,0-19.2-9.71A23.55,23.55,0,0,0,95,56.22c0,.88.22,1.54.22,2.43C88.34,62,84.36,67.7,84.36,75c0,10.41,8.19,18.75,19,19.36,1,7.23,10.11,12.89,21.21,12.89,9.46,0,17.47-4.11,20.25-9.8A22.09,22.09,0,0,0,174.11,68.5Z"/>
  <g>
    <polygon class="cls-2" points="129.21 66.16 149.09 55.72 129.21 45.28 109.32 55.38 129.21 66.16"/>
    <g>
      <polygon class="cls-2" points="131 69.28 131 93.43 150 82.16 150 58.53 131 69.28"/>
      <polygon class="cls-2" points="128 69.28 109 58.53 109 82.16 128 93.43 128 69.28"/>
    </g>
  </g>
  <g>
    <rect class="cls-3" x="161" y="29" width="53" height="91"/>
    <g>
      <rect class="cls-4" x="187" y="30" width="26" height="89"/>
      <rect class="cls-2" x="163" y="52" width="24" height="3"/>
      <polygon class="cls-5" points="199 38 163 38 163 41 199 41 199 38 199 38"/>
      <polyline class="cls-5" points="199 38 163 38 163 41 199 41 199 38"/>
      <rect class="cls-2" x="163" y="45" width="24" height="3"/>
      <rect class="cls-2" x="163" y="38" width="24" height="3"/>
      <rect class="cls-6" x="187" y="52" width="26" height="3"/>
      <rect class="cls-6" x="187" y="45" width="26" height="3"/>
      <rect class="cls-6" x="187" y="38" width="26" height="3"/>
    </g>
    <rect class="cls-6" x="162" y="38" width="3" height="3"/>
    <rect class="cls-6" x="162" y="45" width="3" height="3"/>
    <rect class="cls-6" x="162" y="52" width="3" height="3"/>
  </g>
  <g>
    <rect class="cls-3" x="206" y="58" width="36" height="62"/>
    <g>
      <rect class="cls-4" x="223" y="59" width="18" height="60"/>
      <rect class="cls-2" x="207" y="74" width="15.96" height="2"/>
      <polygon class="cls-5" points="231.23 64.14 206.63 64.14 206.63 66.14 231.23 66.14 231.23 64.14 231.23 64.14"/>
      <polyline class="cls-5" points="231.23 64.14 206.63 64.14 206.63 66.14 231.23 66.14 231.23 64.14"/>
      <rect class="cls-2" x="207" y="69" width="15.96" height="2"/>
      <rect class="cls-2" x="207" y="64" width="15.96" height="2"/>
      <rect class="cls-6" x="223" y="74" width="18" height="2"/>
      <rect class="cls-6" x="223" y="69" width="18" height="2"/>
      <rect class="cls-6" x="223" y="64" width="18" height="2"/>
    </g>
    <rect class="cls-6" x="207" y="64" width="2" height="2"/>
    <rect class="cls-6" x="207" y="69" width="2" height="2"/>
    <rect class="cls-6" x="207" y="74" width="2" height="2"/>
  </g>
  <g>
    <polygon class="cls-7" points="290.72 85.55 278.09 96.24 276.71 79.75 260.23 78.38 270.92 65.75 260.23 53.11 276.71 51.74 278.08 35.3 289.69 45.9 303.35 35.21 304.73 51.74 321.21 53.11 310.52 65.75 321.21 78.38 304.73 79.75 303.35 96.24 290.72 85.55"/>
    <polygon class="cls-4" points="310.53 65.75 321.21 78.38 304.73 79.76 303.35 96.24 289.22 85.25 289.22 46.25 303.35 35.21 304.73 51.74 321.21 53.12 310.53 65.75"/>
    <path class="cls-6" d="M302.08,38.1l1.11,13.34.14,1.69,1.69.14,13.16,1.1-8.53,10.09-1.09,1.29L309.65,67l8.53,10.09L305,78.22l-1.69.14L303.2,80l-1.1,13.16L292,84.68l-1.29-1.09-1.29,1.09-10.09,8.53L278.24,80l-.14-1.69-1.69-.14-13.16-1.1L271.79,67l1.09-1.29-1.09-1.29-8.53-10.09,13.16-1.1,1.69-.14.14-1.69,1.08-13,9,8.26,1.25,1.14,1.33-1,11.13-8.72m1.69-3.86-14.05,11-12.05-11-1.42,17-17,1.42,11,13.05-11,13.05,17,1.42,1.42,17,13.05-11,13.05,11,1.42-17,17-1.42-11-13.05,11-13.05-17-1.42-1.42-17Z"/>
    <path class="cls-6" d="M279.42,62.16l10,10V51.25H291v20.9l10-10,1.14,1.14L290.22,75.25,278.27,63.3Z"/>
    <line class="cls-8" x1="281.22" y1="79.25" x2="299.22" y2="79.25"/>
  </g>
</svg>
