<svg id="ICONS" xmlns="http://www.w3.org/2000/svg" viewBox="0 0 400 140">
  <defs>
    <style>
      .cls-1, .cls-4, .cls-8 {
        fill: #fff;
      }

      .cls-1 {
        stroke: #55d2f6;
      }

      .cls-1, .cls-7, .cls-8 {
        stroke-miterlimit: 10;
        stroke-width: 2px;
      }

      .cls-2 {
        fill: #2bc7f4;
      }

      .cls-3 {
        fill: #556a8a;
      }

      .cls-5 {
        fill: #e5e5e5;
      }

      .cls-6 {
        fill: #c6df33;
      }

      .cls-7, .cls-9 {
        fill: none;
      }

      .cls-7, .cls-8 {
        stroke: #556a8a;
      }
    </style>
  </defs>
  <title>virtualization-hperv-server-windows-server</title>
  <path class="cls-1" d="M330.82,103.52A22.61,22.61,0,0,0,302,81.8a20.73,20.73,0,0,0-31.27-22.16,22.63,22.63,0,0,0-18.16-9.54c-11.61,0-21.57,9.72-23.39,22.46C218.11,75.1,210,86.14,210,99s9.44,32.75,34,30.87c0,0,62.11,0,62.3,0C306.7,129.83,330.82,129.88,330.82,103.52Z"/>
  <path class="cls-1" d="M168,74.39A17.72,17.72,0,0,0,164.81,69a24.64,24.64,0,0,0-6.77-6v-.59a19.89,19.89,0,0,0-19.86-19.62,19.53,19.53,0,0,0-10.55,2.94A26.59,26.59,0,0,0,106.29,35,26.17,26.17,0,0,0,80,60.75c0,1,.25,1.72.25,2.7-7.6,3.68-12,10.05-12,18.15,0,11.57,9.1,20.84,21.16,21.52,1.11,8,11.23,14.32,23.57,14.32,10.51,0,19.41-4.57,22.5-10.89A24.54,24.54,0,0,0,168,74.39Z"/>
  <g>
    <polygon class="cls-2" points="119.1 73.79 141.2 62.19 119.1 50.59 97 61.81 119.1 73.79"/>
    <g>
      <polygon class="cls-2" points="121.05 77.25 121.05 104.09 142.49 91.56 142.49 65.31 121.05 77.25"/>
      <polygon class="cls-2" points="117.15 77.25 95.72 65.31 95.72 91.56 117.15 104.09 117.15 77.25"/>
    </g>
  </g>
  <g>
    <polygon class="cls-3" points="276.99 90.06 254.44 111 248 111 257.66 83.62 268.31 78.79 276.99 90.06"/>
    <polygon class="cls-3" points="295 90.06 317.55 111 323.99 111 314.33 83.62 303.68 78.79 295 90.06"/>
    <polygon class="cls-3" points="293 115 279 115 282 105 290 105 293 115"/>
    <path class="cls-4" d="M285.94,18S264.66,45.54,265,66.32c.36,21.65,11.17,35.29,11.27,35.43H295.6c.1-.14,10.92-13.78,11.27-35.43C307.22,45.54,285.94,18,285.94,18Z"/>
    <path class="cls-5" d="M306.28,67.08a62,62,0,0,1-10.63,34.3l-.24.34h-9.66l-.24-.34a62.15,62.15,0,0,1-10.63-34.3c-.11-6.62,2-14,5-20.92a131.36,131.36,0,0,1,10.69-19.62,131.36,131.36,0,0,1,10.69,19.62C304.23,53.11,306.39,60.47,306.28,67.08Z"/>
    <path class="cls-6" d="M270,46l.3-.7a142,142,0,0,1,14.52-25.24l1.07-1.46,1.06,1.45A142.08,142.08,0,0,1,301.46,45.3l.3.7Z"/>
    <path class="cls-7" d="M285.94,18.25S264.66,45.8,265,66.57c.36,21.65,11.17,35.29,11.27,35.43H295.6c.1-.14,10.92-13.78,11.27-35.43C307.22,45.8,285.94,18.25,285.94,18.25Z"/>
    <circle class="cls-8" cx="285.35" cy="58.24" r="8.05"/>
    <rect class="cls-3" x="278" y="103" width="16" height="3"/>
  </g>
  <g>
    <rect class="cls-8" x="157" y="35" width="53" height="91"/>
    <g>
      <rect class="cls-5" x="183" y="36" width="26" height="89"/>
      <rect class="cls-2" x="159" y="58" width="24" height="3"/>
      <polygon class="cls-9" points="195 44 159 44 159 47 195 47 195 44 195 44"/>
      <polyline class="cls-9" points="195 44 159 44 159 47 195 47 195 44"/>
      <rect class="cls-2" x="159" y="51" width="24" height="3"/>
      <rect class="cls-2" x="159" y="44" width="24" height="3"/>
      <rect class="cls-3" x="183" y="58" width="26" height="3"/>
      <rect class="cls-3" x="183" y="51" width="26" height="3"/>
      <rect class="cls-3" x="183" y="44" width="26" height="3"/>
    </g>
    <rect class="cls-3" x="158" y="44" width="3" height="3"/>
    <rect class="cls-3" x="158" y="51" width="3" height="3"/>
    <rect class="cls-3" x="158" y="58" width="3" height="3"/>
  </g>
  <g>
    <rect class="cls-8" x="202" y="64" width="36" height="62"/>
    <g>
      <rect class="cls-5" x="219" y="65" width="18" height="60"/>
      <rect class="cls-2" x="203" y="80" width="15.96" height="2"/>
      <polygon class="cls-9" points="227.23 70.14 202.63 70.14 202.63 72.14 227.23 72.14 227.23 70.14 227.23 70.14"/>
      <polyline class="cls-9" points="227.23 70.14 202.63 70.14 202.63 72.14 227.23 72.14 227.23 70.14"/>
      <rect class="cls-2" x="203" y="75" width="15.96" height="2"/>
      <rect class="cls-2" x="203" y="70" width="15.96" height="2"/>
      <rect class="cls-3" x="219" y="80" width="18" height="2"/>
      <rect class="cls-3" x="219" y="75" width="18" height="2"/>
      <rect class="cls-3" x="219" y="70" width="18" height="2"/>
    </g>
    <rect class="cls-3" x="203" y="70" width="2" height="2"/>
    <rect class="cls-3" x="203" y="75" width="2" height="2"/>
    <rect class="cls-3" x="203" y="80" width="2" height="2"/>
  </g>
</svg>
