<svg xmlns="http://www.w3.org/2000/svg" width="18" height="18" viewBox="0 0 18 18">
  <defs>
    <linearGradient id="b68c486e-7d9f-456c-88af-4d1ee29c080a" x1="8.793" y1="0.684" x2="8.793" y2="11.358" gradientUnits="userSpaceOnUse">
      <stop offset="0.18" stop-color="#5ea0ef" />
      <stop offset="1" stop-color="#0078d4" />
    </linearGradient>
    <linearGradient id="a7ebcdaf-8912-49d6-a61c-445d4239851f" x1="13.649" y1="17.656" x2="13.649" y2="8.999" gradientUnits="userSpaceOnUse">
      <stop offset="0" stop-color="#5e9624" />
      <stop offset="0.293" stop-color="#68a628" />
      <stop offset="0.69" stop-color="#72b62c" />
      <stop offset="0.999" stop-color="#76bc2d" />
    </linearGradient>
    <linearGradient id="ace0e461-ff44-42d0-a539-4f8b743bbe72" x1="-550.35" y1="1008.52" x2="-550.35" y2="1016.456" gradientTransform="matrix(1, 0, 0, -1, 564, 1025.516)" gradientUnits="userSpaceOnUse">
      <stop offset="0.001" stop-color="#76bc2d" />
      <stop offset="1" stop-color="#86d633" />
    </linearGradient>
    <linearGradient id="b60dfc4a-027e-4dbb-8037-49e17cc93a02" x1="7.678" y1="11.358" x2="7.678" y2="15.477" gradientUnits="userSpaceOnUse">
      <stop offset="0.15" stop-color="#ccc" />
      <stop offset="1" stop-color="#707070" />
    </linearGradient>
  </defs>
  <g id="b83f5f80-7bd2-4cff-b3c0-0011a0673129">
    <g>
      <path d="M9.685,10.241a.628.628,0,0,1,.61-.625,2.569,2.569,0,0,0,1.733-.506A2.42,2.42,0,0,1,13.649,8.6a2.4,2.4,0,0,1,1.622.516,2.4,2.4,0,0,0,1.528.5V1.218a.534.534,0,0,0-.534-.534H1.321a.534.534,0,0,0-.534.534v9.607a.534.534,0,0,0,.534.533H9.685Z" fill="url(#b68c486e-7d9f-456c-88af-4d1ee29c080a)" />
      <polygon points="11.462 4.464 11.462 7.569 8.793 9.134 8.793 6.021 11.462 4.464" fill="#50e6ff" />
      <polygon points="11.462 4.464 8.793 6.03 6.125 4.464 8.793 2.908 11.462 4.464" fill="#c3f1ff" />
      <polygon points="8.793 6.03 8.793 9.134 6.125 7.569 6.125 4.464 8.793 6.03" fill="#9cebff" />
      <polygon points="6.125 7.569 8.793 6.021 8.793 9.134 6.125 7.569" fill="#c3f1ff" />
      <polygon points="11.462 7.569 8.793 6.021 8.793 9.134 11.462 7.569" fill="#9cebff" />
      <path d="M17.213,13.041c0,2.326-2.815,4.2-3.426,4.581a.22.22,0,0,1-.234,0c-.632-.382-3.467-2.26-3.467-4.581v-2.8a.224.224,0,0,1,.219-.224C12.514,9.961,12.01,9,13.649,9s1.135.962,3.324,1.018a.224.224,0,0,1,.219.224Z" fill="url(#a7ebcdaf-8912-49d6-a61c-445d4239851f)" />
      <path d="M16.9,13.061c0,2.138-2.581,3.853-3.141,4.2a.206.206,0,0,1-.214,0c-.56-.347-3.141-2.062-3.141-4.2V10.516a.21.21,0,0,1,.17-.242l.024,0c2.006-.056,1.527-.931,3.054-.931s1.044.9,3.055.931a.209.209,0,0,1,.2.2Z" fill="url(#ace0e461-ff44-42d0-a539-4f8b743bbe72)" />
      <path d="M9.685,13.041V11.358H7.219c0,1.842-.054,2.98-1.637,3.229a.89.89,0,0,0-.792.89h5.775A4.218,4.218,0,0,1,9.685,13.041Z" fill="url(#b60dfc4a-027e-4dbb-8037-49e17cc93a02)" />
    </g>
  </g>
</svg>