<?xml version="1.0" encoding="utf-8"?>
<!-- Generator: Adobe Illustrator 22.0.0, SVG Export Plug-In . SVG Version: 6.00 Build 0)  -->
<svg version="1.1" id="Layer_1" xmlns="http://www.w3.org/2000/svg" xmlns:xlink="http://www.w3.org/1999/xlink" x="0px" y="0px"
	 viewBox="0 0 64 64" style="enable-background:new 0 0 64 64;" xml:space="preserve">
<style type="text/css">
	.st0{fill:#FFFFFF;}
	.st1{fill:#E5E5E5;}
	.st2{fill:#0C50C7;}
	.st3{fill:none;stroke:#868686;stroke-width:2;stroke-miterlimit:10;}
</style>
<title>i_account-management</title>
<g>
	<path class="st0" d="M12,1h39c1.1,0,2,0.9,2,2v58c0,1.1-0.9,2-2,2H12c-1.1,0-2-0.9-2-2V3C10,1.9,10.9,1,12,1z"/>
	<path class="st1" d="M53,52v9c0,1.1-0.9,2-2,2H12c-1.1,0-2-0.9-2-2v-9H53z"/>
	<path class="st2" d="M53,3v5H10V3c0-1.1,0.9-2,2-2h39C52.1,1,53,1.9,53,3z"/>
	<path class="st3" d="M12,1h39c1.1,0,2,0.9,2,2v58c0,1.1-0.9,2-2,2H12c-1.1,0-2-0.9-2-2V3C10,1.9,10.9,1,12,1z"/>
	<line class="st3" x1="10" y1="8" x2="53" y2="8"/>
	<line class="st3" x1="10" y1="52" x2="53" y2="52"/>
	<circle class="st3" cx="31.5" cy="23" r="8"/>
	<path class="st3" d="M19,43c0.1-6.8,5.7-12.1,12.5-12c6.8-0.1,12.4,5.2,12.5,12"/>
</g>
</svg>
