<?xml version="1.0" encoding="utf-8"?>
<!-- Generator: Adobe Illustrator 21.0.0, SVG Export Plug-In . SVG Version: 6.00 Build 0)  -->
<svg version="1.1" id="Layer_1" xmlns="http://www.w3.org/2000/svg" xmlns:xlink="http://www.w3.org/1999/xlink" x="0px" y="0px"
	 width="50px" height="50px" viewBox="0 0 50 50" enable-background="new 0 0 50 50" xml:space="preserve">
<g>
	<g>
		<path fill="#0072C6" d="M33.128,32.443c-0.151,0-0.624,0.015-0.774,0.023c-1.443-3.163-4.626-5.366-8.33-5.366
			c-4.54,0-8.298,3.306-9.024,7.64c-0.046-0.001-0.09-0.007-0.136-0.007c-2.824,0-5.681,1.987-7.002,4.267h12.311
			c0.718-1.332,2.11-2.25,3.727-2.25c2.344,0,4.25,1.906,4.25,4.25s-1.907,4.25-4.25,4.25c-1.617,0-3.008-0.918-3.727-2.25H7.197
			c0.047,0.245,0.106,0.53,0.188,0.893C8.193,47.487,11.171,50,14.864,50h18.32l0.326-0.019c4.67-0.201,8.397-4.04,8.397-8.759
			C41.906,36.373,37.976,32.443,33.128,32.443z M49,0H26.995C26.995,0,26,0.004,26,1.002v24.279c1.051,0.182,2.057,0.514,3,0.976V24
			h4v5.544c0.223,0.294,0.444,0.59,0.638,0.907c0.815,0.031,1.603,0.162,2.362,0.365V24h4v7h-3.371
			C40.907,32.43,44,36.469,44,41.222c0,1.717-0.407,3.337-1.12,4.778H49c0,0,1-0.043,1-1V1C50,0.004,49,0,49,0z M33,21h-4v-7h4V21z
			 M33,11h-4V4h4V11z M40,21h-4v-7h4V21z M40,11h-4V4h4V11z M47,31h-4v-7h4V31z M47,21h-4v-7h4V21z M47,11h-4V4h4V11z M23.9,44
			c1.657,0,3-1.343,3-3s-1.343-3-3-3c-1.304,0-2.403,0.837-2.816,2H6.961c-2.436-0.127-4.344-2.267-4.344-4.703
			c0-2.529,2.057-4.586,4.567-4.587l0.054,0.003c0.054,0.004,0.108,0.007,0.162,0.009l1.467,0.062l0.572-1.352
			c0.942-2.225,3.111-3.662,5.526-3.662c1.212,0,2.259,0.375,3.181,0.993c0.667-0.413,1.383-0.752,2.133-1.018
			c-1.418-1.295-3.228-2.093-5.314-2.093c-3.36,0-6.243,2.042-7.476,4.954c-0.096-0.004-0.189-0.014-0.286-0.014
			c-3.702,0-6.703,3.001-6.703,6.703c0,3.583,2.813,6.519,6.351,6.703h14.233C21.497,43.163,22.596,44,23.9,44z"/>
	</g>
</g>
</svg>
