<?xml version="1.0" encoding="utf-8"?>
<!-- Generator: Adobe Illustrator 22.0.0, SVG Export Plug-In . SVG Version: 6.00 Build 0)  -->
<svg version="1.1" id="ICONS-64x" xmlns="http://www.w3.org/2000/svg" xmlns:xlink="http://www.w3.org/1999/xlink" x="0px" y="0px"
	 viewBox="0 0 64 64" style="enable-background:new 0 0 64 64;" xml:space="preserve">
<style type="text/css">
	.st0{fill:#0C50C7;}
	.st1{fill:#FFFFFF;}
	.st2{fill:#FFFFFF;stroke:#868686;stroke-width:2;stroke-miterlimit:10;}
	.st3{fill:#E5E5E5;}
</style>
<title>i_tools</title>
<path class="st0" d="M54,36h-5V15l3-4L49,1h-4l-3,10l3,4v21h-5v6h3c0,2-2,4-3,4.1v12.4c0,3.3,2,5.5,4,5.5h6c2,0,4-2.7,4-6V46
	c-1,0-3-2-3-4h3V36z"/>
<rect x="44" y="45" class="st1" width="2" height="17"/>
<rect x="48" y="45" class="st1" width="2" height="17"/>
<path class="st2" d="M34,13c0-4.7-2.7-9-7-10.9V10l-5,4l-5-4V2.1C11,4.9,8.3,12,11.1,18c1.2,2.6,3.3,4.7,5.9,5.9V59c0,2.2,1.8,4,4,4
	h1c2.2,0,4-1.8,4-4V24.3C30.8,22.6,34,18.1,34,13z"/>
<rect x="18" y="53" class="st3" width="7" height="5"/>
</svg>
