<?xml version="1.0" encoding="utf-8"?>
<!-- Generator: Adobe Illustrator 22.0.0, SVG Export Plug-In . SVG Version: 6.00 Build 0)  -->
<svg version="1.1" id="ICONS-64x" xmlns="http://www.w3.org/2000/svg" xmlns:xlink="http://www.w3.org/1999/xlink" x="0px" y="0px"
	 viewBox="0 0 64 64" style="enable-background:new 0 0 64 64;" xml:space="preserve">
<style type="text/css">
	.st0{fill:none;stroke:#868686;stroke-width:2;stroke-miterlimit:10;}
	.st1{fill:#FFFFFF;}
	.st2{fill:#0F65EF;}
	.st3{fill:#0C50C7;}
</style>
<title>i_multi-connect</title>
<g>
	<line class="st0" x1="13.9" y1="32.4" x2="20" y2="30.2"/>
	<line class="st0" x1="22.6" y1="7.5" x2="42.8" y2="9.1"/>
	<line class="st0" x1="32" y1="53.3" x2="46.2" y2="46.1"/>
	<line class="st0" x1="21.3" y1="50.7" x2="10.7" y2="39"/>
	<line class="st0" x1="9" y1="27.9" x2="16" y2="10.1"/>
	<line class="st0" x1="27.5" y1="51.8" x2="29.5" y2="36.3"/>
	<line class="st0" x1="36.8" y1="24" x2="47.9" y2="12.9"/>
	<path class="st1" d="M53.6,33.2c4.9,0,8.9,3.9,8.9,8.7s-4,8.7-8.9,8.7s-8.9-3.9-8.9-8.7S48.7,33.2,53.6,33.2z"/>
	<path class="st0" d="M53.6,33.2c4.9,0,8.9,3.9,8.9,8.7s-4,8.7-8.9,8.7s-8.9-3.9-8.9-8.7S48.7,33.2,53.6,33.2z"/>
	<path class="st1" d="M8.1,27.4c3.7,0,6.6,2.9,6.6,6.5c0,3.6-3,6.5-6.6,6.5s-6.6-2.9-6.6-6.5C1.5,30.3,4.5,27.4,8.1,27.4z"/>
	<path class="st0" d="M8.1,27.4c3.7,0,6.6,2.9,6.6,6.5c0,3.6-3,6.5-6.6,6.5s-6.6-2.9-6.6-6.5C1.5,30.3,4.5,27.4,8.1,27.4z"/>
	<path class="st2" d="M30.5,17.4c6.5,0,11.7,5.1,11.7,11.5c0,6.3-5.2,11.5-11.7,11.5s-11.7-5.1-11.7-11.5
		C18.8,22.5,24,17.4,30.5,17.4z"/>
	<path class="st3" d="M26.6,47.5c4.3,0,7.8,3.4,7.8,7.7c0,4.2-3.5,7.7-7.8,7.7c-4.3,0-7.8-3.4-7.8-7.7
		C18.8,50.9,22.3,47.5,26.6,47.5z"/>
	<path class="st2" d="M17.6,1.2c3.2,0,5.8,2.6,5.8,5.7s-2.6,5.7-5.8,5.7c-3.2,0-5.8-2.6-5.8-5.7S14.4,1.2,17.6,1.2z"/>
	<path class="st1" d="M47.9,5.5c3.7,0,6.6,2.9,6.6,6.5s-3,6.5-6.6,6.5c-3.7,0-6.6-2.9-6.6-6.5S44.3,5.5,47.9,5.5z"/>
	<path class="st0" d="M47.9,5.5c3.7,0,6.6,2.9,6.6,6.5s-3,6.5-6.6,6.5c-3.7,0-6.6-2.9-6.6-6.5S44.3,5.5,47.9,5.5z"/>
	<line class="st0" x1="51.3" y1="34.2" x2="48.7" y2="18.8"/>
</g>
</svg>
