<?xml version="1.0" encoding="utf-8"?>
<!-- Generator: Adobe Illustrator 22.0.0, SVG Export Plug-In . SVG Version: 6.00 Build 0)  -->
<svg version="1.1" id="Titles" xmlns="http://www.w3.org/2000/svg" xmlns:xlink="http://www.w3.org/1999/xlink" x="0px" y="0px"
	 viewBox="0 0 64 64" style="enable-background:new 0 0 64 64;" xml:space="preserve">
<style type="text/css">
	.st0{fill:#E5E5E5;stroke:#868686;stroke-width:2;stroke-miterlimit:10;}
	.st1{fill:#0C50C7;}
	.st2{fill:#0F65EF;}
	.st3{fill:none;stroke:#868686;stroke-width:2;stroke-miterlimit:10;}
</style>
<title>i_threat-protection</title>
<circle class="st0" cx="32" cy="32" r="31"/>
<g>
	<path class="st1" d="M49.1,14.9c0-0.3-0.3-0.6-0.6-0.6h-1c-1.9,1.4-4.3,2.2-6.6,2.2c-3.5,0-5.7-1.9-7.3-3.1c-0.3-0.3-0.6-0.9-1-1.2
		h-1.3c-0.3,0.3-0.6,0.9-1,1.2c-1.6,1.3-3.8,3.1-6.9,3.1c-2.5,0-4.9-0.8-7-2.2h-0.9c-0.3,0-0.3,0.3-0.6,0.6
		C9.3,30,16.6,47.6,31.7,55.2h0.9C47.5,47.6,54.8,30,49.1,14.9z"/>
	<path class="st2" d="M32.7,55.2h-0.6V12.1h0.6c0.3,0.3,0.6,0.9,1,1.2c1.6,1.3,3.8,3.2,7.3,3.2c2.4-0.1,4.7-0.8,6.6-2.2h1
		c0.3,0,0.6,0.3,0.6,0.6C54.8,30,47.5,47.6,32.7,55.2z"/>
	<path class="st3" d="M32.1,55.2h-0.3C16.6,47.6,9.3,30,15,14.9c0.3-0.3,0.3-0.6,0.6-0.6h0.9c2.1,1.4,4.5,2.2,7,2.2
		c3.2,0,5.4-1.9,7-3.1c0.3-0.3,0.6-0.9,1-1.2h1.3c0.3,0.3,0.6,0.9,1,1.2c1.6,1.3,3.8,3.1,7.3,3.1c2.4-0.1,4.7-0.8,6.6-2.2h1
		c0.3,0,0.6,0.3,0.6,0.6c5.6,15.1-1.7,32.8-16.5,40.3H32.1z"/>
</g>
</svg>
