<?xml version="1.0" encoding="utf-8"?>
<!-- Generator: Adobe Illustrator 22.0.0, SVG Export Plug-In . SVG Version: 6.00 Build 0)  -->
<svg version="1.1" id="ICONS-64x" xmlns="http://www.w3.org/2000/svg" xmlns:xlink="http://www.w3.org/1999/xlink" x="0px" y="0px"
	 viewBox="0 0 64 64" style="enable-background:new 0 0 64 64;" xml:space="preserve">
<style type="text/css">
	.st0{fill:#868686;}
	.st1{fill:#FFFFFF;}
	.st2{fill:#0F65EF;}
	.st3{fill:none;stroke:#E5E5E5;stroke-width:2;stroke-miterlimit:10;}
</style>
<title>i_search</title>
<g>
	<path class="st0" d="M30.2,31.2L30.2,31.2c1.6-1.6,4.1-1.6,5.7,0l23.5,23.5c1.6,1.6,1.6,4.1,0,5.7c-1.6,1.6-4.1,1.6-5.7,0
		L30.2,36.8C28.6,35.3,28.6,32.7,30.2,31.2z"/>
	<path class="st1" d="M22.4,2C10.9,2,1.5,11.4,1.5,22.9c0,0.4,0,0.7,0,1.1c0.6,11.5,10.4,20.4,21.9,19.9
		c10.7-0.5,19.3-9.1,19.9-19.9c0-0.4,0-0.7,0-1.1C43.2,11.4,33.9,2,22.4,2z"/>
	<path class="st2" d="M43.1,23c0,0.4,0,0.7,0,1.1L1.3,23.9c0-0.4,0-0.7,0-1.1C1.3,11.3,10.7,2,22.3,2S43.1,11.4,43.1,23L43.1,23z"/>
	<path class="st3" d="M1.5,22.9c0,11.5,9.4,20.9,20.9,20.9c11.5,0,20.9-9.4,20.9-20.9C43.3,11.4,33.9,2,22.4,2
		C10.9,2,1.5,11.4,1.5,22.9z"/>
</g>
</svg>
