<?xml version="1.0" encoding="utf-8"?>
<!-- Generator: Adobe Illustrator 22.0.0, SVG Export Plug-In . SVG Version: 6.00 Build 0)  -->
<svg version="1.1" id="Layer_1" xmlns="http://www.w3.org/2000/svg" xmlns:xlink="http://www.w3.org/1999/xlink" x="0px" y="0px"
	 viewBox="0 0 64 64" style="enable-background:new 0 0 64 64;" xml:space="preserve">
<style type="text/css">
	.st0{fill:#FFFFFF;}
	.st1{fill:#0C50C7;}
	.st2{fill:none;stroke:#868686;stroke-width:2;stroke-miterlimit:10;}
	.st3{fill:#868686;}
</style>
<title>i_upgrade</title>
<g id="ICONS-64x">
	<path class="st0" d="M31,4C15,4,2,17,2,33s13,29,29,29s29-13,29-29S47,4,31,4z"/>
	<path class="st1" d="M26.5,61.5c-10.6-2-19.3-9.6-22.8-19.8C3.5,40.8,3.2,39.9,3,39h58c-0.2,0.9-0.5,1.8-0.8,2.7
		c-3.4,10.3-12.1,17.9-22.8,19.8H26.5z"/>
	<path class="st2" d="M32,3.5c-16,0-29,13-29,29s13,29,29,29s29-13,29-29S48,3.5,32,3.5z"/>
	<g>
		<rect x="31" y="49.1" class="st3" width="2" height="0.1"/>
		<polygon class="st3" points="32.1,12.1 18.4,25.7 19.9,27.1 31,16 31,50 33,50 33,15.8 44.1,27 45.6,25.6 		"/>
	</g>
</g>
</svg>
