<svg xmlns="http://www.w3.org/2000/svg" viewBox="0 0 383.39 382.64"><defs><style>.cls-1{fill:#fdfdfd;}.cls-2{fill:#012558;}.cls-3{fill:#012458;}</style></defs><title>Asset 1</title><g id="Layer_2" data-name="Layer 2"><g id="Layer_1-2" data-name="Layer 1"><path class="cls-1" d="M192,383q-94.12,0-188.25.07c-2.57,0-3.07-.5-3.07-3.07Q.8,191.75.68,3.5C.68.93,1.18.43,3.75.43Q192.38.55,381,.43c2.57,0,3.07.5,3.07,3.07q-.12,188.25,0,376.5c0,2.57-.5,3.08-3.07,3.07Q286.5,382.94,192,383Zm84-188.88c-33.5,0-67,.07-100.49-.09-3.57,0-4.24,1.07-4.23,4.37.12,31.37.07,62.74.07,94.11,0,17.88.06,35.75-.06,53.63,0,2.52.71,3.58,3.22,3.77,3,.22,5.95.7,8.92,1.11q46.92,6.59,93.83,13.17c33.14,4.62,66.29,9.14,99.41,13.88,3.09.45,3.64-.13,3.63-3.11q-.12-88.48,0-177c0-3-.6-3.95-3.82-3.94C343,194.17,309.51,194.12,276,194.12Zm-.37-6.12c33.5,0,67-.06,100.49.09,3.45,0,4.2-.91,4.2-4.26q-.16-88.11-.08-176.22a14.73,14.73,0,0,1,0-1.88c.25-1.85-.39-2.29-2.28-2q-40.05,5.69-80.11,11.23Q236.49,23.5,175.1,32c-3,.41-3.8,1.45-3.79,4.45q.15,73.86,0,147.73c0,3.1.7,3.89,3.85,3.88C208.65,188,242.15,188,275.64,188ZM85.45,194.12c-25.62,0-51.23,0-76.84-.05-2.45,0-3.43.36-3.43,3.17q.15,63,0,125.94c0,2.39.71,3.2,3,3.51,16.2,2.18,32.39,4.48,48.58,6.73,35,4.86,70,9.65,104.93,14.65,3,.43,3.48-.13,3.47-3q-.12-73.65,0-147.31c0-2.86-.63-3.76-3.66-3.74C136.17,194.18,110.81,194.12,85.45,194.12ZM85.06,188c25.49,0,51-.05,76.46.07,2.91,0,3.69-.69,3.68-3.65-.12-29.35-.08-58.71-.08-88.07q0-29.79,0-59.59c0-1.59.74-3.45-2.47-3-13.94,2.11-27.92,3.93-41.89,5.87q-56,7.81-112,15.6c-2.73.37-3.62,1.23-3.61,4.12q.17,62.6,0,125.18c0,2.73.55,3.52,3.42,3.5C34.09,187.94,59.58,188,85.06,188Z" transform="translate(-0.68 -0.43)"/><path class="cls-2" d="M276,194.12c33.5,0,67,0,100.49-.08,3.22,0,3.82.91,3.82,3.94q-.13,88.49,0,177c0,3-.54,3.56-3.63,3.11-33.12-4.74-66.27-9.26-99.41-13.88q-46.92-6.56-93.83-13.17c-3-.41-5.93-.89-8.92-1.11-2.51-.19-3.23-1.25-3.22-3.77.12-17.88.06-35.75.06-53.63,0-31.37,0-62.74-.07-94.11,0-3.3.66-4.38,4.23-4.37C209,194.19,242.51,194.12,276,194.12Z" transform="translate(-0.68 -0.43)"/><path class="cls-3" d="M275.64,188c-33.49,0-67-.05-100.48.08-3.15,0-3.86-.78-3.85-3.88q.15-73.86,0-147.73c0-3,.81-4,3.79-4.45q61.4-8.43,122.77-17.09,40-5.6,80.11-11.23c1.89-.26,2.53.18,2.28,2a14.73,14.73,0,0,0,0,1.88q0,88.11.08,176.22c0,3.35-.75,4.27-4.2,4.26C342.64,187.94,309.14,188,275.64,188Z" transform="translate(-0.68 -0.43)"/><path class="cls-3" d="M85.45,194.12c25.36,0,50.72.06,76.08-.07,3,0,3.66.88,3.66,3.74q-.13,73.65,0,147.31c0,2.84-.47,3.4-3.47,3-35-5-69.95-9.79-104.93-14.65-16.19-2.25-32.38-4.55-48.58-6.73-2.3-.31-3-1.12-3-3.51q.12-63,0-125.94c0-2.81,1-3.18,3.43-3.17C34.22,194.16,59.83,194.12,85.45,194.12Z" transform="translate(-0.68 -0.43)"/><path class="cls-3" d="M85.06,188c-25.48,0-51-.06-76.45.07-2.87,0-3.43-.77-3.42-3.5q.13-62.58,0-125.18c0-2.89.88-3.75,3.61-4.12q56-7.71,112-15.6c14-1.94,27.95-3.76,41.89-5.87,3.21-.49,2.47,1.37,2.47,3q0,29.79,0,59.59c0,29.36,0,58.72.08,88.07,0,3-.77,3.66-3.68,3.65C136,188,110.55,188,85.06,188Z" transform="translate(-0.68 -0.43)"/></g></g></svg>