<?xml version="1.0" encoding="utf-8"?>
<!-- Generator: Adobe Illustrator 22.0.0, SVG Export Plug-In . SVG Version: 6.00 Build 0)  -->
<svg version="1.1" id="ICONS-64x" xmlns="http://www.w3.org/2000/svg" xmlns:xlink="http://www.w3.org/1999/xlink" x="0px" y="0px"
	 viewBox="0 0 64 64" style="enable-background:new 0 0 64 64;" xml:space="preserve">
<style type="text/css">
	.st0{fill:#868686;}
	.st1{fill:#0C50C7;}
	.st2{fill:none;stroke:#868686;stroke-width:2;stroke-miterlimit:10;}
	.st3{fill:#FFFFFF;}
	.st4{fill:#E5E5E5;}
</style>
<title>i_whats-new</title>
<path class="st0" d="M17.1,60l2.4-2.4L6.7,45l-2.3,2.3c-1.6,1.6-0.1,6.4,3.1,9.6C10.7,60.2,15.5,61.6,17.1,60z"/>
<path class="st1" d="M9.3,55.1c-3.5-3.5-5.2-7.6-3.6-9.1c0.4-0.4,0.8-0.9,1.3-1.3c1.8-0.9,4.8,1.5,7.9,4.6s6.1,5.8,5.2,7.6
	c-0.1,0.1-1.4,1.4-1.6,1.6C16.9,60.2,12.8,58.6,9.3,55.1z"/>
<path class="st2" d="M28.7,40.8l-1.9,1.9c-3,3-3,7.9,0,10.8c3,3,7.9,3,10.8,0l0,0l1.9-1.9c3-3,3-7.9,0-10.8
	C36.5,37.9,31.7,37.9,28.7,40.8L28.7,40.8z"/>
<path class="st3" d="M40.6,23.6L40.6,23.6c-6.2-6.1-10.5-11.9-11.3-15.5c-1.3,4-5.2,12.2-10.7,21.5c-2.6,4.5-11.1,16-11.1,16
	c0,2.1,2.6,5.3,3.8,6.6c0.2,0.2,0.4,0.4,0.4,0.4c0.8,0.8,4.5,4.2,7.1,4.2c0,0,11.5-8.6,16-11.2c9.3-5.5,17.5-9.5,21.5-10.8
	c-2.9-0.6-7.2-3.5-12-7.9C43.1,26,41.8,24.8,40.6,23.6z"/>
<path class="st4" d="M56.2,34.9c-4,1.3-12.2,5.3-21.5,10.8c-4.4,2.6-16,11.2-16,11.2c-2.5,0-7.4-4.5-6.7-4.4c0,0,9.5-7.4,15.1-11.2
	S47,30,47,30C51,33.9,53.3,34.3,56.2,34.9z"/>
<path class="st2" d="M40.6,23.6L40.6,23.6C34.9,18,30.8,12.8,29.5,9.1c-0.1-0.4-0.3,0.3-0.4-0.1c-0.2,0.5,0.1-1-0.1-0.4
	c-3,7.3-6.5,14.2-10.6,21C16,34.1,7.5,45.6,7.4,45.6c0,2.5,3.5,6.3,4.3,7.1c0.8,0.8,4.5,4.2,7.1,4.2c0.1-0.1,11.5-8.6,16-11.2
	c9.3-5.5,16-8.8,19.9-10.1c-0.5-0.1,1.1-0.3,0.6-0.5C51.6,33.7,46.1,29.1,40.6,23.6z"/>
<path class="st1" d="M48.7,15.5c5.9,5.9,9.4,12.6,10.3,16.2c0.4,1.3,0.2,2.3-0.3,2.9c-0.7,0.6-1.6,0.7-2.4,0.4
	c-2.8-0.5-7.1-3.1-11.8-7c-1.3-1.2-2.8-2.5-4.3-4c-1.4-1.4-2.8-2.9-4-4.3c-4-4.7-6.6-9-7-11.7c-0.3-0.8-0.1-1.7,0.4-2.4
	c0.6-0.6,1.6-0.7,2.9-0.4C36.1,6.2,42.8,9.6,48.7,15.5z"/>
<path class="st4" d="M45.6,18.7c2.3,2.3,2.3,6.1,0,8.5c-0.3,0.3-0.6,0.6-0.9,0.8c-1.5-1.2-2.8-2.5-4.3-4c-1.5-1.5-2.8-2.9-4-4.3
	c0.2-0.4,0.5-0.6,0.8-0.9C39.4,16.4,43.2,16.3,45.6,18.7z"/>
<path class="st2" d="M48.7,15.5c5.9,5.9,9.4,12.6,10.3,16.2c0.4,1.3,0.2,2.3-0.3,2.9c-0.7,0.6-1.6,0.7-2.4,0.4
	c-3.5-0.6-9.8-4.9-16-11S29.8,11.5,29.2,8c-0.3-0.8-0.1-1.7,0.4-2.4c0.6-0.6,1.6-0.7,2.9-0.4C36.1,6.2,42.8,9.6,48.7,15.5z"/>
</svg>
